<?xml version="1.0" standalone="no"?>
<!DOCTYPE svg PUBLIC "-//W3C//DTD SVG 20010904//EN"
 "http://www.w3.org/TR/2001/REC-SVG-20010904/DTD/svg10.dtd">
<svg version="1.0" xmlns="http://www.w3.org/2000/svg"
 width="512.000000pt" height="512.000000pt" viewBox="0 0 512.000000 512.000000"
 preserveAspectRatio="xMidYMid meet">

<g transform="translate(0.000000,512.000000) scale(0.100000,-0.100000)"
fill="#000000" stroke="none">
<path d="M4535 4934 c-539 -83 -1001 -378 -1302 -830 l-54 -82 -90 -11 c-298
-38 -569 -214 -712 -462 -61 -104 -9 -147 90 -75 114 82 280 138 451 152 93 7
91 9 67 -70 -23 -77 -20 -101 20 -137 l35 -32 -20 -26 c-102 -132 -150 -231
-176 -364 -21 -106 -12 -150 41 -196 67 -58 139 -50 300 32 59 31 103 64 169
129 l89 88 34 -30 c18 -17 41 -30 51 -30 9 0 46 14 81 30 45 22 67 28 75 20 6
-6 12 -68 14 -139 5 -154 -12 -256 -64 -376 -36 -86 -41 -114 -22 -133 25 -25
56 -11 126 53 92 85 160 178 216 296 70 145 89 226 91 405 l3 152 82 78 c79
75 140 147 140 166 0 14 -39 48 -55 48 -9 0 -50 -36 -92 -81 -138 -145 -332
-288 -510 -376 -71 -35 -72 -35 -95 -17 -59 47 -448 377 -448 380 0 3 16 55
36 117 141 436 444 803 854 1030 36 20 86 45 112 56 l47 20 226 -190 c210
-178 225 -192 219 -217 -34 -144 -138 -387 -217 -509 -70 -110 -71 -111 -52
-139 9 -15 25 -24 40 -24 21 0 36 16 81 85 111 171 212 415 254 617 31 148 42
272 38 431 -4 194 2 188 -173 161z m72 -256 c-10 -249 10 -241 -187 -75 -93
78 -170 146 -172 151 -1 5 17 15 42 23 63 20 259 62 294 62 l29 1 -6 -162z
m-1501 -785 c-4 -10 -21 -53 -39 -96 l-31 -78 -33 6 c-71 13 -278 -22 -408
-69 -29 -11 59 69 129 116 102 70 272 136 355 137 28 1 32 -2 27 -16z m129
-680 c63 -53 115 -102 115 -109 0 -7 -34 -44 -76 -83 -54 -50 -101 -84 -158
-111 -107 -51 -146 -58 -171 -30 -19 21 -19 24 -3 102 10 44 33 114 52 155 35
73 103 172 119 173 4 0 59 -44 122 -97z m712 -105 c-3 -57 -13 -132 -23 -168
-18 -73 -78 -208 -118 -266 l-26 -39 7 50 c11 67 10 296 0 365 l-9 55 79 52
c43 28 82 52 87 52 5 1 6 -43 3 -101z"/>
<path d="M4018 4544 c-64 -20 -149 -99 -178 -165 -61 -143 2 -316 143 -391 35
-19 58 -23 132 -23 78 0 97 4 141 27 103 54 158 148 159 268 0 62 -5 85 -28
132 -66 134 -220 198 -369 152z m213 -119 c58 -41 84 -94 84 -172 0 -52 -5
-68 -30 -105 -43 -62 -103 -90 -181 -86 -211 12 -259 279 -69 382 49 27 145
17 196 -19z"/>
<path d="M2681 2723 c-102 -24 -191 -48 -198 -54 -7 -7 -13 -24 -13 -40 0 -49
24 -52 157 -20 65 15 120 27 122 25 3 -3 -45 -80 -435 -700 l-184 -291 -312
115 c-244 90 -316 113 -334 106 -31 -12 -689 -584 -701 -609 -19 -39 15 -81
55 -67 8 2 158 130 335 284 177 154 327 282 334 285 6 2 154 -48 328 -112 290
-106 319 -115 339 -102 11 8 165 244 341 525 176 281 323 511 326 512 3 0 19
-53 34 -117 15 -65 32 -124 37 -130 6 -7 23 -13 39 -13 55 0 55 24 2 239 -40
161 -51 195 -68 201 -12 4 -95 -10 -204 -37z"/>
<path d="M3333 1850 c-66 -40 -63 -1 -63 -830 l0 -750 -80 0 -80 0 0 634 0
633 -23 34 c-36 54 -55 59 -235 59 -182 0 -209 -7 -239 -63 -17 -29 -18 -82
-21 -664 l-3 -633 -79 0 -80 0 0 515 c0 566 1 559 -60 590 -44 23 -351 22
-390 -1 -62 -37 -60 -22 -60 -588 l0 -516 -80 0 -80 0 0 385 c0 419 -1 431
-55 473 -26 21 -38 22 -205 22 -167 0 -179 -1 -205 -22 -54 -42 -55 -54 -55
-473 l0 -385 -80 0 -80 0 0 215 c0 235 -4 255 -57 291 -23 15 -53 19 -160 22
-177 6 -218 -1 -260 -43 l-33 -33 0 -226 0 -226 -64 0 c-56 0 -67 -3 -80 -22
-20 -29 -20 -34 4 -58 20 -20 33 -20 2113 -20 2016 0 2095 1 2110 18 21 23 22
46 1 66 -14 14 -67 16 -440 16 l-424 0 0 378 c0 408 -2 422 -54 422 -46 0 -46
-2 -46 -412 l0 -388 -160 0 -160 0 2 748 3 747 149 3 c113 2 151 -1 158 -10 4
-7 8 -119 8 -249 0 -169 3 -238 12 -247 20 -20 56 -14 73 12 14 21 16 59 13
268 -4 334 1 328 -260 328 -144 0 -167 -2 -195 -20z m-325 -953 l2 -628 -157
3 -158 3 -3 605 c-1 333 0 615 3 628 5 22 7 22 158 20 l152 -3 3 -628z m-678
-117 l0 -510 -155 0 -155 0 0 503 c0 277 3 507 7 510 3 4 73 7 155 7 l148 0 0
-510z m-672 -122 l2 -388 -160 0 -160 0 0 383 c0 211 3 387 7 391 4 3 75 5
157 4 l151 -3 3 -387z m-694 36 c14 -5 16 -34 16 -215 l0 -209 -155 0 -155 0
0 209 c0 158 3 211 13 214 18 8 262 8 281 1z"/>
<path d="M142 258 c-19 -19 -15 -66 7 -78 27 -14 114 -13 133 3 24 19 28 43
12 66 -13 18 -25 21 -78 21 -35 0 -67 -5 -74 -12z"/>
<path d="M4782 258 c-19 -19 -15 -66 7 -78 11 -5 52 -10 91 -10 39 0 80 5 91
10 22 12 26 59 7 78 -16 16 -180 16 -196 0z"/>
</g>
</svg>
