<?xml version="1.0" encoding="UTF-8"?>
<svg className="icon" width="1200pt" height="1200pt" version="1.1" viewBox="0 0 1200 1200" xmlns="http://www.w3.org/2000/svg">
 <path d="m586.62 1149.5c-116.34 0-232.66-34.355-331.43-99.672-128.43-84.91-215.38-212.5-244.86-359.22-28.211-140.43 1.957-290.05 82.766-410.54 78.156-116.54 194.89-194.98 328.73-220.89 127.74-24.73 263.39 3.6484 372.13 77.832 104.68 71.375 174.59 177.32 196.91 298.29 21.238 115.08-5.3867 236.73-72.996 333.72-64.645 92.773-159.76 154.15-267.89 172.82-102.47 17.664-210.13-7.1992-295.34-68.27-80.832-57.938-133.61-142.3-148.61-237.56-14.148-89.891 9.0742-183.56 63.734-257 51.277-68.891 124.92-113 207.37-124.22 77.352-10.5 157.08 11.184 218.71 59.566 56.891 44.711 92.258 107.7 99.539 177.36 6.7812 65.102-13.656 130.88-56.074 180.54-38.316 44.844-90.781 71.184-147.74 74.207-52.57 2.7344-105.85-17.461-142.75-54.121-32.543-32.363-49.355-74.617-47.293-118.95 1.9219-41.352 24.492-82.98 57.504-106.03 27.852-19.453 60.684-24.66 92.398-14.676 26.363 8.3164 41.004 36.422 32.699 62.773-8.3047 26.375-36.445 41.016-62.762 32.711-1.3906-0.44531-2.2188-0.71875-5.0273 1.2461-7.5859 5.293-14.363 18.383-14.844 28.586-0.74219 16.223 5.2578 30.793 17.855 43.285 16.934 16.836 42.637 26.34 66.938 25.199 37.535-1.9922 62.531-22.453 76.895-39.254 24.324-28.477 36.539-67.766 32.605-105.14-4.4023-42.48-26.363-81.203-61.777-109.03-40.43-31.754-92.664-46.043-143.38-39.109-55.57 7.5469-105.48 37.668-140.54 84.793-38.711 51.996-55.164 118.21-45.18 181.69 10.789 68.555 49.152 129.57 108.02 171.77 63.602 45.562 143.77 64.164 220.01 50.977 81.562-14.09 153.59-60.742 202.81-131.4 52.414-75.203 73.066-169.37 56.664-258.35-17.41-94.512-72.422-177.53-154.84-233.75-86.867-59.242-195.01-81.91-296.72-62.258-107.46 20.809-201.43 84.145-264.61 178.37-66.047 98.496-90.758 220.63-67.754 335.09 24.168 120.38 95.891 225.3 201.93 295.44 110.12 72.828 246.24 99.516 373.44 73.199 228.3-47.23 403.33-254.47 416.15-492.79 1.4883-27.602 24.961-48.719 52.68-47.281 27.602 1.4883 48.77 25.066 47.27 52.68-15.23 282.94-223.75 529.17-495.83 585.44-38.738 7.9766-78.121 11.938-117.5 11.938z" fill="#010101"/>
</svg>
