<?xml version="1.0" standalone="no"?>
<!DOCTYPE svg PUBLIC "-//W3C//DTD SVG 20010904//EN"
 "http://www.w3.org/TR/2001/REC-SVG-20010904/DTD/svg10.dtd">
<svg version="1.0" xmlns="http://www.w3.org/2000/svg"
 width="512.000000pt" height="512.000000pt" viewBox="0 0 512.000000 512.000000"
 preserveAspectRatio="xMidYMid meet">

<g transform="translate(0.000000,512.000000) scale(0.100000,-0.100000)"
fill="#000000" stroke="none">
<path d="M2260 5114 c-19 -2 -80 -9 -135 -15 -476 -51 -906 -252 -1079 -507
-79 -116 -89 -157 -94 -383 l-4 -196 -55 -44 c-103 -82 -187 -208 -218 -326
-22 -84 -22 -633 0 -718 27 -101 72 -173 176 -277 l97 -98 4 -192 c4 -171 7
-200 27 -253 13 -33 27 -64 31 -68 5 -5 -1 -30 -13 -55 -46 -105 -47 -118 -47
-687 0 -596 0 -601 63 -719 63 -120 234 -270 402 -354 169 -84 414 -156 658
-194 206 -31 590 -32 792 0 572 90 975 325 1086 635 20 55 22 86 26 293 l5
231 34 17 c136 64 324 233 381 342 58 110 63 146 63 479 0 329 -5 365 -59 473
-42 82 -72 112 -116 112 -75 0 -97 -69 -46 -149 144 -227 26 -463 -319 -641
-87 -44 -278 -115 -365 -135 -20 -4 5 17 75 63 164 109 272 232 322 370 19 51
22 85 26 317 5 329 -1 419 -34 451 -33 34 -86 33 -114 -3 -19 -24 -21 -36 -16
-88 13 -119 -33 -223 -147 -332 -185 -178 -511 -301 -924 -349 -166 -20 -502
-14 -658 10 -135 22 -322 68 -422 105 -80 29 -218 96 -178 87 270 -68 379 -81
685 -81 302 1 407 13 655 75 405 102 693 285 804 511 50 103 61 167 61 361 l0
146 98 99 c172 173 192 238 192 628 0 310 -7 362 -61 474 -47 96 -150 208
-255 279 -200 134 -487 235 -808 283 -125 19 -507 34 -596 23z m430 -165 c544
-49 971 -248 1094 -509 133 -283 -169 -583 -729 -724 -238 -60 -618 -83 -879
-52 -432 50 -816 209 -968 400 -69 86 -93 148 -93 241 0 70 4 89 32 145 53
107 175 218 331 298 315 163 783 240 1212 201z m-1394 -1169 c270 -176 637
-274 1080 -287 588 -17 1097 127 1393 393 l54 49 -5 -90 c-4 -55 -14 -111 -27
-145 -94 -249 -506 -456 -1036 -521 -127 -16 -461 -16 -585 0 -514 65 -910
257 -1026 499 -23 47 -29 74 -32 157 l-4 100 55 -52 c30 -28 90 -75 133 -103z
m-303 -164 c26 -59 100 -158 159 -211 248 -223 655 -363 1153 -396 251 -16
571 11 785 66 71 18 82 18 50 0 -112 -64 -377 -142 -602 -176 -188 -29 -523
-31 -703 -5 -491 70 -866 259 -981 493 -25 50 -29 70 -29 143 0 73 4 93 28
139 15 30 42 72 59 94 l32 40 16 -74 c9 -41 24 -91 33 -113z m29 -623 c426
-276 1196 -357 1830 -194 254 66 506 191 623 311 21 22 43 40 49 40 5 0 7 -36
3 -91 -7 -114 -40 -189 -122 -277 -306 -331 -1110 -483 -1775 -336 -165 37
-279 76 -415 144 -271 133 -395 284 -395 481 l0 80 67 -57 c36 -31 97 -77 135
-101z m256 -752 c198 -134 472 -228 807 -278 164 -24 601 -24 758 0 412 63
720 187 926 373 l54 49 -5 -90 c-4 -55 -14 -111 -27 -145 -80 -210 -404 -403
-815 -485 -188 -37 -305 -48 -511 -48 -104 0 -235 5 -290 12 -515 63 -913 256
-1032 499 -23 47 -28 72 -31 157 l-4 100 53 -51 c30 -27 82 -69 117 -93z
m3020 -466 c-4 -65 -11 -92 -37 -144 -113 -222 -476 -404 -951 -476 -147 -22
-467 -31 -615 -16 -322 32 -626 127 -826 256 -67 44 -189 150 -189 165 0 4 48
-6 108 -22 151 -39 324 -67 487 -77 186 -11 822 -6 955 9 443 47 794 176 1015
373 58 52 59 51 53 -68z m-3116 54 c44 -37 169 -119 245 -160 19 -10 33 -29
41 -56 18 -62 88 -162 162 -233 61 -58 107 -92 245 -176 l40 -25 -35 7 c-88
17 -265 81 -375 134 -279 137 -419 318 -391 504 4 25 10 46 13 46 4 0 29 -18
55 -41z m108 -574 c257 -166 617 -268 1030 -290 203 -11 887 11 1035 34 122
18 301 59 359 81 39 14 32 -1 -31 -65 -69 -70 -190 -151 -310 -205 -48 -23
-94 -48 -101 -57 -34 -45 8 -123 66 -123 35 0 212 85 305 147 37 24 93 68 124
96 l56 52 -5 -92 c-7 -127 -42 -201 -142 -298 -175 -172 -477 -296 -861 -352
-168 -24 -545 -24 -705 0 -405 62 -699 186 -874 367 -90 92 -119 157 -124 275
l-5 90 44 -38 c186 -159 401 -261 699 -331 196 -47 302 -58 582 -63 l267 -5
31 30 c37 37 39 74 6 107 l-25 25 -223 -1 c-242 0 -384 14 -575 57 -385 86
-670 253 -768 451 -24 49 -30 73 -33 158 l-4 99 58 -54 c33 -29 88 -72 124
-95z"/>
<path d="M2216 4711 c-78 -11 -112 -77 -68 -131 19 -23 21 -23 303 -25 226 -1
303 -5 379 -19 279 -53 480 -150 480 -231 0 -61 -123 -140 -290 -188 -191 -55
-445 -79 -698 -66 -228 12 -428 56 -568 124 -71 35 -144 101 -144 130 0 8 25
42 55 75 30 33 55 69 55 81 0 28 -53 79 -82 79 -32 0 -102 -53 -137 -104 -171
-248 130 -478 703 -536 175 -18 517 -8 676 20 303 53 506 155 566 285 135 289
-312 519 -1001 514 -99 -1 -202 -5 -229 -8z"/>
<path d="M1914 4656 c-76 -33 -52 -146 30 -146 49 0 80 29 80 74 0 62 -53 96
-110 72z"/>
<path d="M3013 688 c-28 -13 -46 -58 -37 -92 14 -57 86 -74 129 -31 65 64 -8
163 -92 123z"/>
</g>
</svg>
